<svg width="263" height="52" viewBox="0 0 263 52" fill="none" xmlns="http://www.w3.org/2000/svg">
<path d="M8.92e-05 5.80307L10.5903 4.95581C14.2054 4.66658 16.9103 5.30623 18.7051 6.87476C20.4965 8.40076 21.5317 10.9075 21.8108 14.395L21.9537 16.1813C22.1374 18.478 21.9044 20.38 21.2545 21.8873C20.6472 23.3912 19.6035 24.5233 18.1234 25.2838L18.1336 25.4114C21.7164 26.3232 23.7086 29.2885 24.1101 34.3071L24.4163 38.1349C24.6919 41.5799 23.9885 44.2899 22.306 46.2651C20.6626 48.1943 18.0971 49.2984 14.6096 49.5774L3.57289 50.4604L8.92e-05 5.80307ZM11.2155 23.2041C12.6191 23.0918 13.6321 22.6469 14.2548 21.8694C14.92 21.0886 15.1845 19.8475 15.0484 18.1463L14.8493 15.6582C14.72 14.0421 14.3287 12.8963 13.6755 12.2209C13.0647 11.5421 12.1427 11.2521 10.9093 11.3507L7.52807 11.6212L8.47231 23.4235L11.2155 23.2041ZM14.0992 43.1978C15.3326 43.0991 16.2215 42.707 16.7659 42.0214C17.3069 41.2932 17.5127 40.1211 17.3834 38.5049L17.0721 34.6133C16.9088 32.5719 16.435 31.1973 15.6507 30.4896C14.9055 29.7359 13.7249 29.4238 12.1087 29.5531L8.98271 29.8032L10.0801 43.5193L14.0992 43.1978ZM46.4806 7.04576C47.3903 8.61367 47.9206 10.6113 48.0715 13.0386L49.5329 36.5452C49.7553 40.1223 49.0118 42.9472 47.3024 45.0199C45.5931 47.0927 43.0137 48.2362 39.5644 48.4507C37.0093 48.6095 34.8457 48.1883 33.0735 47.187L32.1544 49.9373L28.2185 48.5148L29.789 43.8644C28.8793 42.2965 28.349 40.2989 28.1981 37.8716L26.7367 14.365C26.5143 10.7879 27.2578 7.96295 28.9671 5.89023C30.6765 3.8175 33.2558 2.67392 36.7052 2.45948C39.2603 2.30063 41.4239 2.72186 43.1961 3.72316L44.1152 0.97283L48.0511 2.39535L46.4806 7.04576ZM34.7083 29.1308L40.7105 11.1878C40.1787 9.51087 38.976 8.73066 37.1023 8.84715C34.675 8.99805 33.5527 10.5427 33.7353 13.481L34.7083 29.1308ZM41.5613 21.7794L35.5591 39.7224C36.0908 41.3993 37.2936 42.1795 39.1673 42.063C41.5946 41.9121 42.7169 40.3675 42.5343 37.4292L41.5613 21.7794ZM52.9687 2.14399L63.3905 1.6835C67.0137 1.52341 69.6941 2.25915 71.4318 3.8907C73.1676 5.47962 74.1128 8.02171 74.2672 11.517L74.3887 14.2663C74.594 18.9124 73.1894 21.9214 70.175 23.2931L70.1807 23.421C71.9083 23.8571 73.1479 24.8487 73.8996 26.3957C74.6939 27.9408 75.1495 30.0347 75.2663 32.6775L75.6137 40.5418C75.6702 41.8206 75.759 42.863 75.88 43.6691C75.9992 44.4326 76.2462 45.1904 76.6211 45.9426L69.4601 46.259C69.1723 45.5457 68.9717 44.8712 68.8582 44.2356C68.7447 43.6 68.6512 42.451 68.5778 40.7886L68.2162 32.6046C68.1258 30.5586 67.7217 29.1458 67.0039 28.366C66.3287 27.5844 65.1813 27.2294 63.5615 27.3009L61.1319 27.4083L61.9794 46.5896L54.9463 46.9003L52.9687 2.14399ZM63.4069 20.9015C64.8135 20.8394 65.8418 20.4309 66.4918 19.6761C67.1844 18.9195 67.493 17.6887 67.4177 15.9837L67.2652 12.531C67.1936 10.9113 66.8434 9.75229 66.2146 9.05403C65.6285 8.35389 64.7174 8.03112 63.4812 8.08574L60.2844 8.227L60.8494 21.0145L63.4069 20.9015ZM79.6229 1.02546L88.4522 0.806315L95.9635 27.4441L96.0914 27.441L95.4261 0.633222L101.696 0.477597L102.808 45.2638L95.5779 45.4433L86.3211 12.9589L86.1931 12.9621L87.0046 45.656L80.7345 45.8117L79.6229 1.02546ZM107.641 0.377521L126.84 0.206793L126.897 6.60654L114.738 6.71467L114.843 18.5542L124.506 18.4683L124.563 24.868L114.9 24.9539L115.022 38.7134L127.182 38.6053L127.238 45.005L108.039 45.1758L107.641 0.377521ZM131.713 0.219259L142.336 0.320049C145.963 0.354456 148.6 1.23285 150.248 2.95522C151.896 4.63494 152.703 7.22405 152.67 10.7226L152.653 12.5145C152.631 14.8184 152.229 16.692 151.448 18.1353C150.709 19.579 149.568 20.6136 148.026 21.239L148.025 21.367C151.512 22.5948 153.232 25.7259 153.184 30.7603L153.148 34.6002C153.115 38.056 152.172 40.6925 150.32 42.5097C148.511 44.2846 145.858 45.1555 142.359 45.1223L131.288 45.0172L131.713 0.219259ZM141.331 18.5513C142.739 18.5647 143.788 18.212 144.477 17.4931C145.21 16.7747 145.584 15.5622 145.6 13.8556L145.624 11.3597C145.639 9.73847 145.352 8.56236 144.761 7.83139C144.213 7.10083 143.321 6.72968 142.084 6.71794L138.692 6.68576L138.579 18.5252L141.331 18.5513ZM142.42 38.7226C143.657 38.7343 144.578 38.423 145.181 37.7887C145.785 37.1118 146.094 35.9626 146.11 34.3414L146.147 30.4376C146.166 28.3896 145.817 26.9783 145.099 26.2034C144.424 25.3863 143.276 24.9701 141.655 24.9547L138.519 24.9249L138.388 38.6843L142.42 38.7226ZM158.15 0.506674L165.188 0.662098L164.199 45.4512L157.161 45.2958L158.15 0.506674ZM170.953 0.821136L189.567 1.43799L189.355 7.83448L177.777 7.4508L177.364 19.924L186.447 20.225L186.235 26.6215L177.152 26.3204L176.505 45.8297L169.469 45.5966L170.953 0.821136ZM193.684 1.62433L212.285 2.5509L211.966 8.94298L200.397 8.36666L199.776 20.8312L208.852 21.2833L208.534 27.6754L199.457 27.2233L198.486 46.7191L191.455 46.3689L193.684 1.62433ZM216.32 2.79599L235.48 4.0366L235.066 10.4232L222.932 9.63751L222.167 21.4528L231.81 22.0772L231.397 28.4638L221.753 27.8394L220.864 41.5706L232.999 42.3564L232.585 48.743L213.425 47.5024L216.32 2.79599ZM240.378 4.4127L249.179 5.15299L253.755 32.4486L253.882 32.4593L256.13 5.73771L262.38 6.26342L258.625 50.9058L251.418 50.2996L245.741 17.0026L245.614 16.9918L242.872 49.5808L236.623 49.0551L240.378 4.4127Z" fill="#5E2779"/>
</svg>
