<svg width="28" height="28" viewBox="0 0 28 28" fill="none" xmlns="http://www.w3.org/2000/svg">
<path d="M1.4 0H26.6C26.9713 0 27.3274 0.163888 27.59 0.455612C27.8525 0.747335 28 1.143 28 1.55556V26.4444C28 26.857 27.8525 27.2527 27.59 27.5444C27.3274 27.8361 26.9713 28 26.6 28H18.2C18.2 26.9412 18.1286 25.9041 17.9858 24.8889H25.2V3.11111H2.8V8.01578C1.87358 7.85644 0.937457 7.77687 0 7.77778V1.55556C0 1.143 0.1475 0.747335 0.41005 0.455612C0.672601 0.163888 1.0287 0 1.4 0ZM15.4 28H12.6C12.6 24.287 11.2725 20.726 8.90955 18.1005C6.54659 15.475 3.34173 14 0 14V10.8889C8.505 10.8889 15.4 18.55 15.4 28ZM9.8 28H7C7 26.9786 6.81894 25.9672 6.46716 25.0236C6.11537 24.0799 5.59976 23.2225 4.94975 22.5003C4.29974 21.778 3.52806 21.2051 2.67878 20.8143C1.8295 20.4234 0.919253 20.2222 0 20.2222V17.1111C2.59912 17.1111 5.09179 18.2583 6.92965 20.3004C8.7675 22.3425 9.8 25.1121 9.8 28ZM4.2 28H0V23.3333C1.11391 23.3333 2.1822 23.825 2.96985 24.7002C3.7575 25.5753 4.2 26.7623 4.2 28Z" fill="#180A1F"/>
</svg>
