<svg width="407" height="204" viewBox="0 0 407 204" fill="none" xmlns="http://www.w3.org/2000/svg">
<path d="M65.4431 101.398C67.8927 99.6677 61.1224 79.0685 91.2994 63.1563C121.476 47.2442 142.059 56.7386 144.951 56.0415C147.809 55.3685 161.247 13.7374 217.757 2.92094C274.266 -7.89547 333.191 12.3913 347.072 46.2347C359.762 77.1696 349.93 98.0092 351.393 99.3552C352.822 100.701 380.141 100.028 395.927 117.959C411.713 135.891 405.997 147.068 405.997 147.068L305.43 169.061H144.509C144.509 169.061 2.74177 142.669 1.31288 137.934C-0.11602 133.199 3.11601 117.815 26.2165 108.489C46.2891 100.389 61.1224 104.451 65.4431 101.398Z" fill="white"/>
<path d="M105.282 174.804C105.282 174.804 51.5967 182.736 15.2959 162.882C-6.54581 150.912 1.41519 131.514 1.41519 131.514C1.41519 131.514 17.065 142.691 48.6709 145.72C80.2767 148.773 115.727 147.739 115.727 147.739C115.727 147.739 124.573 158.411 157.879 163.315C199.624 169.444 221.635 154.349 221.635 154.349C221.635 154.349 233.067 164.012 273.314 164.685C313.561 165.358 336.117 145.504 339.894 145.047C341.799 144.831 352.89 151.945 374.868 149.446C395.791 147.066 406.814 140.648 406.814 140.648C406.814 140.648 409.842 156.56 388.782 166.367C372.35 174.011 343.772 174.828 343.772 174.828C343.772 174.828 339.417 186.63 319.787 195.211C301.552 203.215 270.116 205.883 246.845 200.98C217.621 194.826 210.374 185.428 210.374 185.428C210.374 185.428 188.601 194.442 154.579 191.389C122.429 188.553 105.282 174.804 105.282 174.804Z" fill="#E5F2FF"/>
</svg>
