<svg width="381" height="233" viewBox="0 0 381 233" fill="none" xmlns="http://www.w3.org/2000/svg">
<path d="M51.2364 110.539C53.1542 108.654 47.8536 86.2082 71.4797 68.87C95.1057 51.5317 111.22 61.8771 113.484 61.1175C115.722 60.3842 126.243 15.0219 170.485 3.23604C214.727 -8.54978 260.861 13.5552 271.728 50.4317C281.663 84.1392 273.966 106.847 275.111 108.313C276.23 109.78 297.618 109.047 309.977 128.585C322.336 148.123 317.862 160.302 317.862 160.302L239.126 184.266H113.138C113.138 184.266 2.14647 155.509 1.02776 150.349C-0.0909479 145.19 2.43946 128.428 20.5252 118.266C36.2404 109.439 47.8537 113.866 51.2364 110.539Z" fill="white"/>
<path d="M11.9754 177.536C40.3959 199.17 82.4273 190.527 82.4273 190.527C82.4273 190.527 95.8518 205.508 121.023 208.598C147.659 211.925 164.706 202.103 164.706 202.103C164.706 202.103 170.379 212.344 193.259 219.049C211.478 224.391 236.09 221.484 250.367 212.763C265.736 203.413 269.145 190.553 269.145 190.553C269.145 190.553 292.232 194.915 305.097 186.586C321.585 175.9 318.501 153.31 318.501 153.31C318.501 153.31 309.871 160.303 293.49 162.896C276.283 165.62 267.6 157.867 266.108 158.103C263.152 158.6 245.492 180.234 213.982 179.501C182.472 178.767 173.522 168.239 173.522 168.239C173.522 168.239 156.289 184.686 123.606 178.008C97.5299 172.665 90.6046 161.036 90.6046 161.036C90.6046 161.036 62.85 162.162 38.1052 158.836C13.3605 155.536 1.10797 143.357 1.10797 143.357C1.10797 143.357 -5.12483 164.493 11.9754 177.536Z" fill="#E5F2FF"/>
<path d="M175.547 147.399C176.237 145.676 166.265 133.602 176.486 115.972C186.707 98.3424 200.144 99.813 201.386 98.6725C202.619 97.5561 196.194 66.7935 221.365 46.3688C246.536 25.9441 282.813 25.5818 300.593 44.7731C316.847 62.3146 318.491 78.4418 319.659 78.9915C320.81 79.5492 334.426 72.6967 348.115 80.8878C361.804 89.0788 362.795 98.0477 362.795 98.0477C362.795 98.0477 364.303 109.208 362.795 116.099C361.286 122.99 359.119 126.703 354.927 132.431C350.735 138.16 333.22 146.288 318.211 153.062C303.201 159.836 237.073 173.735 237.073 173.735C237.073 173.735 156.918 189.474 154.69 186.668C152.462 183.863 149.211 172.902 157.942 161.3C165.53 151.221 174.33 150.436 175.547 147.399Z" fill="white"/>
<path d="M217.584 189.147C217.584 189.147 183.777 203.578 159.865 196.944C145.471 192.935 152.008 178.029 152.008 178.029C152.008 178.029 163.749 184.082 180.791 180.088C197.839 176.11 215.78 168.593 215.78 168.593C215.78 168.593 223.152 174.208 241.565 171.172C264.637 167.355 271.948 152.783 271.948 152.783C271.948 152.783 280.382 157.21 301.239 149.941C322.097 142.673 328.427 124.735 330.246 123.697C331.168 123.183 338.751 125.929 349.381 119.995C359.502 114.346 363.465 107.831 363.465 107.831C363.465 107.831 369.236 118.154 361.014 128.919C354.596 137.313 340.129 143.361 340.129 143.361C340.129 143.361 340.01 158.024 332.197 167.675C324.948 176.662 310.511 178.789 297.255 179.898C280.609 181.293 274.396 176.244 274.396 176.244C274.396 176.244 265.596 186.603 247.307 191.045C230.037 195.276 217.584 189.147 217.584 189.147Z" fill="#E5F2FF"/>
</svg>
