<svg width="394" height="203" viewBox="0 0 394 203" fill="none" xmlns="http://www.w3.org/2000/svg">
<path d="M41.1712 101.176C42.7122 99.4495 38.453 78.8953 57.4376 63.018C76.4223 47.1407 89.3713 56.6144 91.1906 55.9188C92.9884 55.2473 101.443 13.7072 136.994 2.91452C172.544 -7.87822 209.615 12.3642 218.347 46.1334C226.331 77.0006 220.145 97.7946 221.066 99.1377C221.964 100.481 239.151 99.8093 249.082 117.701C259.013 135.593 255.418 146.746 255.418 146.746L192.15 168.691H90.9123C90.9123 168.691 1.72497 142.357 0.826034 137.632C-0.0729022 132.907 1.96041 117.557 16.4932 108.252C29.1211 100.169 38.453 104.222 41.1712 101.176Z" fill="white"/>
<path d="M66.2344 174.423C66.2344 174.423 32.4601 182.338 9.62284 162.527C-4.11805 150.583 0.89031 131.229 0.89031 131.229C0.89031 131.229 10.7358 142.381 30.6194 145.403C50.503 148.449 72.8052 147.418 72.8052 147.418C72.8052 147.418 78.3701 158.066 99.3239 162.959C125.586 169.075 139.434 154.013 139.434 154.013C139.434 154.013 146.625 163.655 171.945 164.326C197.265 164.998 211.456 145.187 213.831 144.731C215.03 144.516 222.007 151.615 235.834 149.12C248.997 146.746 255.931 140.342 255.931 140.342C255.931 140.342 257.836 156.22 244.588 166.005C234.25 173.632 216.271 174.447 216.271 174.447C216.271 174.447 213.532 186.223 201.182 194.786C189.71 202.772 169.933 205.435 155.293 200.542C136.908 194.402 132.349 185.024 132.349 185.024C132.349 185.024 118.651 194.018 97.2477 190.972C77.0217 188.142 66.2344 174.423 66.2344 174.423Z" fill="#E5F2FF"/>
<path d="M352.435 101.176C350.894 99.4495 355.153 78.8954 336.168 63.018C317.184 47.1407 304.235 56.6144 302.415 55.9188C300.618 55.2473 292.163 13.7072 256.612 2.91452C221.062 -7.87822 183.991 12.3642 175.259 46.1334C167.275 77.0006 173.461 97.7946 172.54 99.1377C171.642 100.481 154.455 99.8093 144.524 117.701C134.592 135.593 138.188 146.746 138.188 146.746L201.456 168.691H302.694C302.694 168.691 391.881 142.357 392.78 137.632C393.679 132.907 391.646 117.557 377.113 108.252C364.485 100.169 355.153 104.222 352.435 101.176Z" fill="white"/>
<path d="M327.372 174.423C327.372 174.423 361.146 182.338 383.983 162.527C397.724 150.583 392.716 131.229 392.716 131.229C392.716 131.229 382.87 142.381 362.987 145.403C343.103 148.449 320.801 147.418 320.801 147.418C320.801 147.418 315.236 158.066 294.282 162.959C268.02 169.075 254.172 154.013 254.172 154.013C254.172 154.013 246.981 163.655 221.661 164.326C196.341 164.998 182.15 145.187 179.775 144.731C178.576 144.516 175.027 157.994 160.275 158.781C146.225 161.93 139.903 154.845 139.903 154.845C139.903 154.845 135.77 156.22 149.018 166.005C159.356 173.632 177.335 174.447 177.335 174.447C177.335 174.447 180.074 186.223 192.424 194.786C203.896 202.772 223.673 205.435 238.313 200.542C256.698 194.402 261.257 185.024 261.257 185.024C261.257 185.024 274.955 194.018 296.358 190.972C316.584 188.142 327.372 174.423 327.372 174.423Z" fill="#E5F2FF"/>
</svg>
