<svg width="393" height="245" viewBox="0 0 393 245" fill="none" xmlns="http://www.w3.org/2000/svg">
<path d="M329.811 122.108C327.446 120.024 333.983 95.2176 304.844 76.0555C275.706 56.8934 255.831 68.327 253.039 67.4876C250.279 66.6771 237.303 16.5431 182.738 3.51751C128.172 -9.50806 71.2745 14.9221 57.8713 55.6777C45.6179 92.9309 55.1119 118.027 53.6993 119.648C52.3195 121.269 25.9403 120.458 10.6975 142.052C-4.54537 163.645 0.973561 177.105 0.973561 177.105L98.0809 203.59H253.466C253.466 203.59 390.355 171.808 391.735 166.106C393.115 160.403 389.994 141.878 367.688 130.647C348.306 120.892 333.983 125.784 329.811 122.108Z" fill="white"/>
<path d="M291.343 210.511C291.343 210.511 343.181 220.063 378.233 196.154C399.324 181.739 391.636 158.38 391.636 158.38C391.636 158.38 376.525 171.84 346.007 175.487C315.488 179.163 281.257 177.919 281.257 177.919C281.257 177.919 272.716 190.77 240.555 196.675C200.247 204.056 178.992 185.879 178.992 185.879C178.992 185.879 167.955 197.515 129.092 198.325C90.2293 199.136 68.4492 175.227 64.8027 174.677C62.9631 174.416 52.2537 182.984 31.032 179.974C10.8287 177.108 0.184984 169.38 0.184984 169.38C0.184984 169.38 -2.73874 188.542 17.596 200.351C33.463 209.556 61.0577 210.54 61.0577 210.54C61.0577 210.54 65.2626 224.753 84.2176 235.086C101.826 244.725 132.18 247.938 154.65 242.033C182.869 234.623 189.866 223.305 189.866 223.305C189.866 223.305 210.891 234.16 243.742 230.484C274.786 227.068 291.343 210.511 291.343 210.511Z" fill="#E5F2FF"/>
</svg>
