<svg width="39" height="37" viewBox="0 0 39 37" fill="none" xmlns="http://www.w3.org/2000/svg">
<path d="M0 8.55766C-1.80749e-08 9.68147 0.238915 10.7943 0.703104 11.8325C1.16729 12.8708 1.84766 13.8142 2.70537 14.6088C3.56308 15.4035 4.58133 16.0339 5.70198 16.4639C6.82263 16.894 8.02374 17.1153 9.23672 17.1153C10.4497 17.1153 11.6508 16.894 12.7715 16.4639C13.8921 16.0339 14.9104 15.4035 15.7681 14.6088C16.6258 13.8142 17.3062 12.8708 17.7703 11.8325C18.2345 10.7943 18.4734 9.68147 18.4734 8.55766C18.4734 6.28803 17.5003 4.11135 15.7681 2.50648C14.0358 0.901609 11.6865 0 9.23672 0C6.78699 0 4.43759 0.901609 2.70537 2.50648C0.973152 4.11135 3.65038e-08 6.28803 0 8.55766ZM0 27.5747C-1.80749e-08 28.6985 0.238915 29.8113 0.703104 30.8496C1.16729 31.8878 1.84766 32.8312 2.70537 33.6259C3.56308 34.4205 4.58133 35.0509 5.70198 35.4809C6.82263 35.911 8.02374 36.1324 9.23672 36.1324C10.4497 36.1324 11.6508 35.911 12.7715 35.4809C13.8921 35.0509 14.9104 34.4205 15.7681 33.6259C16.6258 32.8312 17.3062 31.8878 17.7703 30.8496C18.2345 29.8113 18.4734 28.6985 18.4734 27.5747C18.4734 25.3051 17.5003 23.1284 15.7681 21.5235C14.0358 19.9186 11.6865 19.017 9.23672 19.017C6.78699 19.017 4.43759 19.9186 2.70537 21.5235C0.973152 23.1284 3.65038e-08 25.3051 0 27.5747ZM20.526 27.5747C20.526 29.8443 21.4992 32.021 23.2314 33.6259C24.9636 35.2307 27.313 36.1324 29.7628 36.1324C32.2125 36.1324 34.5619 35.2307 36.2941 33.6259C38.0263 32.021 38.9995 29.8443 38.9995 27.5747C38.9995 25.3051 38.0263 23.1284 36.2941 21.5235C34.5619 19.9186 32.2125 19.017 29.7628 19.017C27.313 19.017 24.9636 19.9186 23.2314 21.5235C21.4992 23.1284 20.526 25.3051 20.526 27.5747ZM14.3682 8.55766C14.3682 9.81857 13.8276 11.0278 12.8652 11.9194C11.9029 12.811 10.5977 13.3119 9.23672 13.3119C7.87576 13.3119 6.57054 12.811 5.60819 11.9194C4.64585 11.0278 4.10521 9.81857 4.10521 8.55766C4.10521 7.29676 4.64585 6.08749 5.60819 5.1959C6.57054 4.3043 7.87576 3.80341 9.23672 3.80341C10.5977 3.80341 11.9029 4.3043 12.8652 5.1959C13.8276 6.08749 14.3682 7.29676 14.3682 8.55766ZM14.3682 27.5747C14.3682 28.8356 13.8276 30.0449 12.8652 30.9365C11.9029 31.8281 10.5977 32.3289 9.23672 32.3289C7.87576 32.3289 6.57054 31.8281 5.60819 30.9365C4.64585 30.0449 4.10521 28.8356 4.10521 27.5747C4.10521 26.3138 4.64585 25.1045 5.60819 24.2129C6.57054 23.3213 7.87576 22.8204 9.23672 22.8204C10.5977 22.8204 11.9029 23.3213 12.8652 24.2129C13.8276 25.1045 14.3682 26.3138 14.3682 27.5747ZM34.8943 27.5747C34.8943 28.8356 34.3536 30.0449 33.3913 30.9365C32.429 31.8281 31.1237 32.3289 29.7628 32.3289C28.4018 32.3289 27.0966 31.8281 26.1342 30.9365C25.1719 30.0449 24.6313 28.8356 24.6313 27.5747C24.6313 26.3138 25.1719 25.1045 26.1342 24.2129C27.0966 23.3213 28.4018 22.8204 29.7628 22.8204C31.1237 22.8204 32.429 23.3213 33.3913 24.2129C34.3536 25.1045 34.8943 26.3138 34.8943 27.5747ZM30.8404 16.4592L31.411 15.2498C32.4074 13.1063 34.2357 11.3874 36.5343 10.4327L38.2872 9.71009C39.2376 9.32025 39.2376 8.0404 38.2872 7.65055L36.6328 6.96784C34.274 5.98943 32.4121 4.20728 31.4336 1.99108L30.8486 0.682711C30.7616 0.481841 30.6117 0.309699 30.4182 0.188455C30.2246 0.0672114 29.9964 0.00241708 29.7628 0.00241708C29.5292 0.00241708 29.3009 0.0672114 29.1074 0.188455C28.9139 0.309699 28.7639 0.481841 28.6769 0.682711L28.0919 1.99108C27.1134 4.20728 25.2516 5.98943 22.8927 6.96784L21.2383 7.65055C20.2879 8.0404 20.2879 9.32025 21.2383 9.71009L22.9912 10.4327C25.2898 11.3874 27.1181 13.1063 28.1145 15.2498L28.6852 16.4592C28.7747 16.6555 28.9247 16.8229 29.1163 16.9406C29.308 17.0583 29.5328 17.1211 29.7628 17.1211C29.9927 17.1211 30.2176 17.0583 30.4092 16.9406C30.6009 16.8229 30.7508 16.6555 30.8404 16.4592Z" fill="black"/>
</svg>
