<svg width="480" height="489" viewBox="0 0 480 489" fill="none" xmlns="http://www.w3.org/2000/svg">
<path d="M48.0005 475.956C28.5505 475.956 12.7305 457.446 12.7305 434.686V182.686C12.7305 159.926 28.5505 141.416 48.0005 141.416H432C451.45 141.416 467.27 159.926 467.27 182.686V434.686C467.27 457.446 451.45 475.956 432 475.956H48.0005Z" fill="#932CC6"/>
<path d="M432 154.146C439.35 154.146 444.5 158.706 446.92 161.416C451.84 166.946 454.55 174.506 454.55 182.686V434.686C454.55 442.866 451.84 450.426 446.92 455.956C444.51 458.676 439.36 463.226 432 463.226H48C40.65 463.226 35.5 458.666 33.08 455.956C28.16 450.426 25.45 442.866 25.45 434.686V182.686C25.45 174.506 28.16 166.946 33.08 161.416C35.49 158.696 40.64 154.146 48 154.146H432ZM432 128.686H48C21.49 128.686 0 152.866 0 182.686V434.686C0 464.506 21.49 488.686 48 488.686H432C458.51 488.686 480 464.506 480 434.686V182.686C480 152.866 458.51 128.686 432 128.686Z" fill="black"/>
<path d="M400 8.68577C400.17 8.49577 321.43 131.106 321.43 131.106L240 48.6858" stroke="black" stroke-width="24" stroke-linecap="round" stroke-linejoin="round"/>
<path d="M405 431.366C416.422 431.366 425.68 422.107 425.68 410.686C425.68 399.265 416.422 390.006 405 390.006C393.579 390.006 384.32 399.265 384.32 410.686C384.32 422.107 393.579 431.366 405 431.366Z" fill="black" stroke="black" stroke-width="12" stroke-miterlimit="10"/>
<path d="M260 428.686C148.68 435.506 63.2101 344.626 118.98 212.976C213.13 230.896 307.67 231.066 383.68 214.306C426.33 345.986 352.84 422.986 260 428.686Z" fill="black" stroke="black" stroke-width="24" stroke-miterlimit="10" stroke-linecap="round"/>
<path d="M383.68 214.306C398.97 210.936 413.51 206.886 427.14 202.146" stroke="black" stroke-width="24" stroke-miterlimit="10" stroke-linecap="round"/>
<path d="M118.981 212.975C103.581 210.045 88.1906 206.645 72.8906 202.755" stroke="black" stroke-width="24" stroke-miterlimit="10" stroke-linecap="round"/>
<path d="M60.2303 240.325C56.8303 204.685 88.1403 181.435 137.51 178.365" stroke="black" stroke-width="24" stroke-miterlimit="10" stroke-linecap="round"/>
<path d="M434.6 227.895C430.96 196.235 415.64 178.365 369 172.405" stroke="black" stroke-width="24" stroke-miterlimit="10" stroke-linecap="round"/>
<path d="M260 428.686C148.68 435.506 63.2101 344.626 118.98 212.976C213.13 230.896 307.67 231.066 383.68 214.306C426.33 345.986 352.84 422.986 260 428.686Z" stroke="black" stroke-width="24" stroke-miterlimit="10" stroke-linecap="round"/>
<path d="M383.68 214.306C398.97 210.936 413.51 206.886 427.14 202.146" stroke="black" stroke-width="24" stroke-miterlimit="10" stroke-linecap="round"/>
<path d="M118.981 212.975C103.581 210.045 88.1906 206.645 72.8906 202.755" stroke="black" stroke-width="24" stroke-miterlimit="10" stroke-linecap="round"/>
<path d="M60.2303 240.325C56.8303 204.685 88.1403 181.435 137.51 178.365" stroke="black" stroke-width="24" stroke-miterlimit="10" stroke-linecap="round"/>
<path d="M434.6 227.895C430.96 196.235 415.64 178.365 369 172.405" stroke="black" stroke-width="24" stroke-miterlimit="10" stroke-linecap="round"/>
<path d="M161.439 209.726V256.206C161.439 285.886 181.879 298.486 211.839 298.486C234.239 298.486 254.959 287.566 257.759 270.766C263.209 286.546 277.769 296.436 302.339 295.946C327.899 295.436 348.199 274.206 348.199 248.636V209.726H161.439ZM245.719 250.046C245.719 266.006 231.439 272.726 214.639 272.726C195.319 272.726 183.839 266.006 183.839 250.046V234.926H245.719V250.046ZM325.799 248.926C325.799 264.886 313.479 270.206 296.679 270.206C279.879 270.206 267.839 264.886 267.839 248.926V234.926H325.799V248.926Z" fill="black"/>
<path d="M325.8 234.926V248.926C325.8 264.886 313.48 270.206 296.68 270.206C279.88 270.206 267.84 264.886 267.84 248.926V234.926H325.8Z" fill="white"/>
<path d="M245.72 234.926V250.046C245.72 266.006 231.44 272.726 214.64 272.726C195.32 272.726 183.84 266.006 183.84 250.046V234.926H245.72Z" fill="white"/>
<path d="M72.8906 202.756C211.721 237.426 328.831 231.306 428.161 204.106" stroke="black" stroke-width="24" stroke-miterlimit="10" stroke-linecap="round"/>
</svg>
