<svg width="209" height="234" viewBox="0 0 209 234" fill="none" xmlns="http://www.w3.org/2000/svg">
<rect x="29" y="62" width="163" height="157" rx="10" fill="#94A3B8"/>
<path d="M189.653 84.7403C187.787 83.065 180.835 79.326 180.878 77.3581C180.904 76.2997 186.218 70.6036 187.377 68.758C193.6 58.8123 196.397 48.9676 188.856 38.7134L199.371 33.8629C199.706 32.1769 198.615 32.5332 197.413 32.714C193.462 33.3204 187.547 37.9262 184.782 35.4797C183.42 34.2937 184.362 34.4213 185.314 33.5916C186.154 32.8576 194.451 29.1612 192.887 27.821C186.165 27.0179 183.702 36.0116 177.501 31.8418L183.973 24.5873C180.33 23.4544 176.469 30.6398 175.336 30.9642C174.352 31.2461 172.161 30.209 170.634 30.1984C152.243 30.0548 142.536 36.0754 131.766 50.494C129.58 53.4299 122.187 64.2904 123.56 67.3592C125.453 71.5769 144.648 79.326 149.929 79.5069C139.297 89.4047 126.586 102.643 127.245 118.258C130.681 119.848 134.782 113.45 136.574 113.604C137.308 113.668 138.085 115.668 139.834 115.87C141.946 116.109 143.1 114.109 145.068 114.232C144.754 119.689 149.791 128.427 154.035 131.533C160.412 136.176 158.545 131.757 162.454 140.112C163.018 141.309 166.236 144.324 163.311 144.122C155.54 143.558 148.881 142.574 141.015 144.92C139.803 146.074 141.111 146.377 142.212 146.532C147.163 147.191 154.37 145.601 159.657 146.532L145.35 149.632C141.664 150.26 141.382 153.089 145.727 152.451C153.519 151.308 162.226 146.781 171.001 148.143C172.677 146.51 162.906 138.857 162.896 136.038C168.693 136.602 173.703 135.378 179.107 133.607C178.08 140.176 180.591 144.51 183.973 149.749C176.102 149.212 168.778 150.345 161.268 152.573C160.401 153.212 160.263 153.664 161.279 154.201C163.029 155.142 175.847 151.978 179.107 152.18L163.688 158.211C162.444 158.871 163.523 160.136 164.13 160.253C165.459 160.525 174.139 156.483 176.676 155.802C181.17 154.605 185.893 154.105 190.489 153.414C192.962 151.903 188.728 150.042 187.601 148.973C181.883 143.558 180.522 140.91 181.67 132.528C189.398 127.448 196.796 122.332 200.982 113.753L202.083 113.493C203.572 113.636 207.444 118.582 208.306 113.806C209.843 105.27 195.759 90.1865 189.653 84.7403ZM125.161 66.5721C124.134 64.6042 131.495 54.0149 133.059 51.7865C142.962 37.8039 155.237 28.7517 173.437 32.6715C173.857 33.081 165.816 43.4363 169.794 43.1438C172.873 40.0643 173.458 32.1237 179.107 34.283L174.256 42.346C175.618 43.8352 179.841 36.0967 182.75 36.703C186.09 37.3944 179.516 41.1865 180.74 42.346L185.388 40.0537C187.265 39.3729 189.127 42.6704 189.797 44.2234C194.355 54.6425 187.265 65.4605 181.537 73.8479C180.186 74.0606 180.782 72.8639 180.926 72.0396C181.809 66.8752 183.032 63.5671 179.516 58.4878L177.511 59.0623C175.815 68.0506 172.506 76.7199 162.401 77.7783C149.163 79.1718 135.697 74.2787 125.161 66.5721ZM143.542 105.031C143.175 107.195 143.978 109.844 143.047 111.796C141.653 114.705 138.053 113.594 138.585 110.19C136.574 108.424 128.155 120.8 129.011 113.216C130.08 103.76 143.036 88.0112 150.339 81.9162C151.248 81.1609 151.658 79.9642 153.173 80.3206C148.115 88.0006 145.11 95.9572 143.542 105.031ZM205.455 113.397C203.737 112.812 198.248 107.397 196.951 108.568L196.206 111.45C191.706 113.227 190.606 107.456 187.622 105.355L186.404 109.376C185.766 109.419 185.138 109.466 184.521 109.248C178.979 107.366 169.23 93.0373 162.906 90.0004L165.619 94.5637C169.72 97.3613 180.644 112.381 185.149 111.817C186.383 111.668 187.388 110.11 188.324 110.264C189.935 110.514 193.414 116.886 198.562 113.429C194.855 119.869 189.297 124.927 183.569 129.565L184.792 125.135C181.117 122.757 179.734 131.283 178.548 132.017C178.181 132.246 173.703 133.453 172.969 133.544C141.425 137.336 140.494 99.5738 155.184 81.0226L166.603 79.592C169.416 84.2404 175.91 81.6024 179.527 78.8793C188.334 85.5807 197.716 93.7393 203.258 103.488C203.907 104.611 208.683 113.259 205.455 113.397Z" fill="black"/>
<path d="M205.454 113.395C203.736 112.81 198.248 107.395 196.95 108.565L196.205 111.453C191.711 113.224 190.605 107.454 187.626 105.358L186.403 109.379C185.765 109.422 185.137 109.464 184.52 109.251C178.978 107.369 169.229 93.0404 162.906 90.0035L165.618 94.5615C169.713 97.3591 180.638 112.384 185.148 111.82C186.382 111.671 187.387 110.113 188.323 110.262C189.935 110.512 193.413 116.889 198.556 113.426C194.849 119.867 189.296 124.925 183.568 129.563L184.792 125.133C181.116 122.755 179.734 131.281 178.548 132.015C178.181 132.244 173.708 133.451 172.974 133.536C141.429 137.328 140.499 99.5716 155.188 81.0151L166.613 79.5897C169.421 84.2381 175.915 81.6001 179.537 78.877C188.344 85.5784 197.726 93.7371 203.268 103.486C203.917 104.608 208.693 113.256 205.46 113.395H205.454Z" fill="#FFC102"/>
<path d="M189.797 44.2222C189.127 42.6692 187.265 39.3717 185.388 40.0525L180.739 42.3448C179.516 41.1853 186.09 37.3932 182.75 36.7018C179.84 36.0955 175.618 43.834 174.256 42.3448L179.106 34.2818C173.458 32.1225 172.873 40.0631 169.794 43.1426C165.815 43.4351 173.857 33.0798 173.437 32.6703C155.237 28.7505 142.961 37.8027 133.058 51.7853C131.495 54.0137 124.134 64.603 125.16 66.5709C135.696 74.2775 149.163 79.1706 162.401 77.7771C172.506 76.7187 175.814 68.0494 177.511 59.0611L179.516 58.4867C183.032 63.5659 181.808 66.874 180.925 72.0384C180.782 72.8628 180.186 74.0594 181.537 73.8467C187.265 65.4593 194.355 54.6413 189.797 44.2222ZM148.317 53.6574C148.934 48.5888 146.621 46.7964 141.823 46.3869C143.717 39.2653 157.843 52.8277 148.317 53.6574ZM164.938 63.3532C161.72 57.0932 159.571 56.0773 152.37 56.8751C152.083 53.5829 158.401 54.3063 160.497 54.8488C163.635 55.6678 169.964 61.7948 164.938 63.3532Z" fill="#FFC102"/>
<path d="M143.541 105.029C143.174 107.188 143.972 109.837 143.046 111.794C141.653 114.703 138.052 113.587 138.584 110.183C136.574 108.422 128.154 120.793 129.011 113.209C130.08 103.752 143.036 88.0095 150.343 81.9144C151.253 81.1592 151.662 79.9572 153.173 80.3135C148.115 87.9989 145.11 95.9501 143.546 105.029H143.541Z" fill="#FFC102"/>
<path d="M164.937 63.354C161.72 57.0993 159.566 56.0835 152.37 56.8812C152.077 53.5837 158.401 54.3071 160.496 54.8496C163.629 55.6686 169.964 61.7956 164.937 63.354Z" fill="black"/>
<path d="M148.318 53.6579C148.935 48.5893 146.621 46.797 141.824 46.3874C143.717 39.2659 157.838 52.8282 148.318 53.6579Z" fill="black"/>
<path d="M84.5919 89.5062C94.4897 85.7247 107.467 81.5337 114.892 73.5877C119.923 68.2053 114.073 64.4398 109.733 60.4615C98.9679 50.5849 82.5708 41.2348 67.5086 43.0751C62.3177 43.7133 57.1108 48.851 58.5894 38.9585C59.8126 37.2246 69.0297 39.8839 67.4873 34.2249C65.7322 27.8107 58.9297 34.6717 57.7277 34.9164C54.2707 35.6078 50.686 28.5341 52.6645 25.4972C56.5364 27.2576 68.9765 26.7577 67.5086 20.6785C65.8386 13.7857 52.4411 22.3699 51.5795 22.1997C47.1544 21.3806 50.8668 13.7219 54.0367 12.8922C55.1536 12.5943 70.9444 15.8599 66.647 8.78621C63.775 4.05268 54.6004 11.1477 53.0155 8.8394C52.239 7.39275 52.7283 5.80781 53.5474 4.52072C54.9089 2.38265 58.4617 1.92526 59.8339 0.0637555C55.9301 -0.521288 50.5796 3.01024 50.4626 6.95662C50.4094 8.42455 51.8773 9.53081 51.8561 10.8179C51.8454 11.988 47.8139 16.1365 48.2182 20.3701C48.3564 21.7742 49.9414 22.7102 50.2392 24.3377C50.9944 28.4809 48.7606 31.5763 53.0368 35.0653C53.9941 35.8418 56.4087 36.5758 56.5258 36.7566C57.4086 38.1607 55.5471 44.7557 59.0361 46.947C55.0897 48.2979 51.2604 51.9252 49.3563 55.6269C47.6969 56.7491 44.2186 51.9783 43.8463 50.5211L43.9846 49.4467C47.5267 48.2022 50.6328 43.5112 48.5479 39.9265C42.2826 38.6819 39.4957 41.7454 39.0915 47.7554C35.5812 47.4788 32.9326 44.1707 33.6027 40.703C38.3682 39.4903 39.8148 36.6502 39.0915 31.8529C34.2516 31.0232 32.1242 34.6611 31.9061 39.0223C19.45 36.012 29.2149 31.0976 30.1829 26.5077C31.704 19.3064 22.8964 25.3802 24.5984 30.9381C18.9713 34.8738 11.8445 27.0555 16.695 22.6571C18.2906 21.221 20.7477 21.5721 21.5349 19.9446C14.3229 19.4127 10.4084 27.3002 15.9185 32.289C19.2692 35.3312 22.3965 33.5016 23.8112 34.3632C24.0133 34.4909 24.6835 37.0863 25.9068 38.2458C27.1726 39.4265 30.5658 40.2562 30.9381 40.7881C31.7891 42.0007 31.0658 44.6706 33.4644 47.4044C36.496 50.8508 39.0702 49.351 40.5488 50.287C40.8253 50.4572 41.3997 52.7336 42.2826 53.7228C43.5059 55.1163 47.2076 57.6107 47.5161 58.1C48.1331 59.0999 46.229 63.6101 46.2184 65.6524C46.2077 67.6841 47.3034 69.5562 47.0693 71.6092L41.0274 69.2371C40.2084 67.9287 44.5377 60.9082 40.9955 59.7488C35.7195 58.0149 36.4109 66.0672 37.4959 69.2265C28.9171 69.5988 32.8049 67.4182 33.4644 63.2271C35.1664 52.574 25.7472 51.5316 27.1938 62.4081C27.4704 64.461 28.9171 66.2374 28.6937 68.3861L22.2795 68.8755C20.769 67.8117 22.6092 59.2276 18.1629 57.1001C12.2168 54.2441 12.8124 61.6103 14.8229 65.195C15.6738 66.7055 18.6522 67.7905 17.1949 70.0562L10.3233 72.0772C8.06827 54.9461 -4.61652 66.0672 7.16411 74.3961C5.40899 76.949 2.73906 77.0448 0 77.566C4.27081 81.5124 6.98328 75.8321 9.78085 74.5982C11.0679 74.0345 19.95 70.2902 20.5244 70.1732C21.9923 69.886 23.8431 71.0667 25.8536 70.8221C33.858 69.8328 35.9323 69.62 43.6442 73.0346C45.1972 73.726 46.8779 73.7685 48.4947 74.1727L53.4516 84.3206C50.4839 84.7354 50.2605 80.3955 48.9308 79.5126C47.0268 78.2361 44.0484 78.6297 44.8036 81.4166L47.8778 85.5013L44.3037 87.517C42.8464 87.1979 43.3783 81.0975 39.5063 81.9485C36.6556 82.5761 41.7082 87.783 40.6339 89.3998L35.911 92.2718C40.1765 93.6228 40.9849 90.6018 43.1336 89.5168C44.0909 89.0382 45.6972 89.7083 47.2608 88.9637C51.4518 86.9639 48.984 84.1504 56.0152 86.1714C56.8342 86.4055 58.4298 86.3416 58.2383 87.5064C47.1651 90.6763 34.4856 93.4951 24.8005 99.8987C16.5567 105.366 12.4614 112.482 26.5982 109.727C28.0342 114.259 31.6827 114.663 35.9003 112.95C33.4963 119.157 38.0278 125.763 41.8784 130.454C43.7506 132.73 50.7711 138.059 51.4625 139.187C53.3878 142.357 51.3136 148.936 48.6968 151.542C46.6864 153.542 42.5273 154.063 43.0804 157.467C52.356 157.775 60.1317 162.541 68.6149 165.423L67.3278 162.339L54.26 157.488L71.0082 159.467C65.4344 155.084 56.4619 154.84 49.4627 154.286C52.2284 150.287 55.1642 146.851 54.26 141.58C60.387 143.516 65.9662 146.298 72.6038 143.963C72.4655 147.074 67.9447 147.713 68.6255 151.117C73.4867 150.946 78.3798 151.276 83.1558 152.127C85.4428 152.542 92.5537 155.254 93.7451 155.095C95.7342 154.808 94.394 152.787 92.7452 152.116C89.336 150.734 84.9322 150.648 81.3582 149.936C80.5072 149.766 78.784 149.893 78.9967 148.744L95.7449 149.521C98.2021 147.425 88.2404 146.372 87.4001 146.319C82.975 146.005 78.5606 146.532 74.21 147.138C75.0291 142.676 79.4754 140.974 82.1985 138.017C86.1342 133.762 89.3998 126.763 89.3679 120.912C91.3464 120.955 92.4155 122.519 94.5748 122.572C96.9043 122.625 98.3829 120.902 99.202 121.029C100.404 121.21 102.787 123.923 105.744 123.976C108.754 124.04 108.69 121.295 109.807 120.966C112.03 120.317 117.487 125.997 120.327 122.125C114.849 106.675 97.3405 98.5159 84.5919 89.5062ZM54.2175 23.6304C54.2281 23.5984 54.2388 23.5612 54.2547 23.524C54.3132 23.3963 54.4249 23.2527 54.5845 23.0985C54.6855 23.0028 54.7972 22.9017 54.9302 22.8007C54.9993 22.7528 55.0685 22.6996 55.1376 22.6464C55.4301 22.439 55.7812 22.2209 56.1747 22.0082H56.1801C56.3768 21.8965 56.5843 21.7901 56.797 21.6838C57.2331 21.471 57.7012 21.2636 58.1905 21.0668C58.4351 20.9711 58.6851 20.8753 58.9404 20.7796C59.1957 20.6945 59.451 20.6041 59.7116 20.5243C59.9456 20.4498 60.1849 20.3807 60.4243 20.3169C60.6636 20.2477 60.9083 20.1892 61.1476 20.136C61.2274 20.1201 61.3018 20.1041 61.3816 20.0882C61.5997 20.0456 61.8124 20.0031 62.0198 19.9712C62.3283 19.9233 62.6262 19.8914 62.9187 19.8701C62.9612 19.8701 63.0038 19.8701 63.0463 19.8595C63.0889 19.8595 63.1314 19.8595 63.1793 19.8542C63.4824 19.8435 63.7696 19.8542 64.0409 19.8754C64.2271 19.8967 64.4079 19.9233 64.5834 19.9605C64.7217 19.9924 64.8546 20.0244 64.9823 20.0722C65.1046 20.1148 65.2216 20.168 65.3333 20.2265C65.4344 20.2796 65.5248 20.3328 65.6099 20.3967C65.695 20.4605 65.7747 20.5296 65.8492 20.6041C65.8758 20.6254 65.9024 20.6573 65.929 20.6839C65.9609 20.7211 65.9928 20.7583 66.0194 20.8009C66.046 20.8328 66.0673 20.8647 66.0885 20.9019C66.1045 20.9338 66.1258 20.9657 66.1417 20.9977C66.1683 21.0402 66.1896 21.0828 66.2109 21.1253C66.1258 21.221 66.0354 21.3168 65.9396 21.4125C65.8971 21.4657 65.8439 21.5136 65.796 21.5614C65.5195 21.8433 65.2323 22.1092 64.9451 22.3539C64.8334 22.4443 64.727 22.5347 64.6153 22.6198C64.2802 22.8751 63.9398 23.1145 63.5888 23.3272H63.5835C63.1208 23.6038 62.6421 23.8431 62.1528 24.0452C62.0411 24.0931 61.9347 24.1356 61.823 24.1675C61.7167 24.2048 61.605 24.242 61.4986 24.2792C61.2806 24.3484 61.0572 24.4122 60.8338 24.4654C60.6902 24.4973 60.5466 24.5292 60.403 24.5558C60.2275 24.593 60.0466 24.6249 59.8658 24.6409C59.7329 24.6622 59.6052 24.6781 59.4722 24.6887C59.318 24.7047 59.1638 24.7153 59.0095 24.7207C58.4458 24.7473 57.8713 24.7207 57.2863 24.6568C56.8661 24.6036 56.4407 24.5292 56.0099 24.4335C55.7227 24.3696 55.4355 24.2899 55.1429 24.1994C55.0047 24.1569 54.861 24.1143 54.7228 24.0665C54.5685 24.0133 54.4143 23.9601 54.26 23.9016C54.2015 23.8218 54.1909 23.7314 54.2175 23.6304ZM57.4778 11.0572C57.4937 11.0094 57.515 10.9615 57.5363 10.9136C57.5522 10.8711 57.5735 10.8232 57.6054 10.7807C57.648 10.6956 57.7065 10.6158 57.7756 10.536C57.8128 10.4988 57.8448 10.4562 57.882 10.419C57.9086 10.3924 57.9352 10.3605 57.9671 10.3339C58.1373 10.1744 58.3394 10.0254 58.5681 9.88716C58.6213 9.85525 58.6745 9.82334 58.733 9.79142C58.8447 9.73292 58.9617 9.67442 59.084 9.61591C59.1638 9.57868 59.2489 9.54145 59.3393 9.50954C59.4244 9.47231 59.5148 9.4404 59.5999 9.40849C59.7541 9.34998 59.9084 9.30212 60.0679 9.25425C60.2062 9.2117 60.3498 9.17447 60.4934 9.13724H60.504C60.6104 9.11065 60.7168 9.08405 60.8232 9.06278C60.9402 9.03619 61.0625 9.01491 61.1848 8.99364C61.3018 8.97768 61.4135 8.95641 61.5305 8.94045C61.6422 8.9245 61.7592 8.90854 61.8709 8.8979C62.0996 8.87663 62.3283 8.86067 62.5464 8.85004C62.6421 8.84472 62.7325 8.84472 62.8229 8.84472H62.8495C62.9719 8.84472 63.0942 8.85004 63.2112 8.85536C63.275 8.85536 63.3388 8.86067 63.4027 8.86599H63.4346C63.626 8.88195 63.8175 8.8979 63.9877 8.92982C64.0515 8.94045 64.1154 8.95641 64.1792 8.96705C64.259 8.983 64.3334 9.00427 64.4026 9.02023C64.7429 9.12128 65.0142 9.25957 65.1897 9.44572C65.211 9.46167 65.2269 9.48295 65.2429 9.50422C65.2748 9.54145 65.3014 9.57868 65.3227 9.62123C65.3546 9.67442 65.3812 9.73292 65.3918 9.79674C65.3971 9.8127 65.4025 9.83397 65.4025 9.85525C65.4131 9.90311 65.4131 9.95098 65.4131 9.99885C63.0942 12.9028 60.5147 11.3764 57.4459 11.1796H57.4406C57.4512 11.137 57.4618 11.0998 57.4778 11.0572ZM42.2933 47.7554C42.2029 47.0746 42.1709 46.4364 42.2029 45.8567C42.2029 45.7024 42.2241 45.5535 42.2454 45.4099C42.2614 45.2663 42.2826 45.1227 42.3145 44.9897C42.3358 44.8568 42.3677 44.7238 42.4103 44.6015C42.4475 44.4526 42.4954 44.3143 42.5539 44.1813C42.5911 44.0749 42.639 43.9739 42.6868 43.8782C42.7932 43.6707 42.9155 43.4793 43.0645 43.3091C43.1283 43.2293 43.2027 43.1495 43.2772 43.0751C43.3304 43.0219 43.3889 42.9687 43.4527 42.9208C43.5219 42.857 43.5963 42.7985 43.6761 42.7506C43.841 42.6336 44.0271 42.5326 44.2239 42.4528C44.2292 42.4475 44.2345 42.4475 44.2399 42.4475C44.2718 42.4315 44.309 42.4209 44.3462 42.4049C44.3941 42.3836 44.4473 42.3677 44.4952 42.357C44.5271 42.3411 44.5537 42.3305 44.5803 42.3251C44.5909 42.3198 44.6015 42.3145 44.6122 42.3198C44.7079 42.2932 44.8036 42.2666 44.91 42.2454C45.0111 42.2188 45.1121 42.1975 45.2238 42.1869C45.3195 42.1709 45.4206 42.1603 45.5216 42.1549C45.5748 42.1496 45.6333 42.1443 45.6865 42.1443C45.7769 42.1337 45.8727 42.1283 45.9684 42.1337C46.0322 42.1337 46.1014 42.139 46.1705 42.139H46.229C46.4417 42.139 46.6651 42.1603 46.8992 42.1869C46.9577 42.1922 47.0108 42.1975 47.0693 42.2028C48.165 43.9898 43.0911 48.6915 42.2933 47.7554ZM7.35026 71.423C7.28644 71.3858 7.22262 71.3433 7.16411 71.306C7.11625 71.2741 7.0737 71.2422 7.03115 71.2103C6.9886 71.1784 6.94605 71.1412 6.9035 71.1092H6.89819C6.81309 71.0348 6.72799 70.9603 6.64289 70.8805C5.17497 69.4552 4.10062 66.53 4.3825 65.179C4.40378 65.0674 4.43569 64.9716 4.47824 64.8812C4.50483 64.828 4.53674 64.7748 4.57397 64.727C4.58993 64.7057 4.6112 64.6791 4.63247 64.6631C4.77076 64.5249 4.95159 64.4557 5.18561 64.4717C5.49408 64.6844 5.77065 64.9131 6.00998 65.1631C6.12699 65.2801 6.244 65.4077 6.35037 65.5407H6.35569C6.46206 65.6737 6.56312 65.8119 6.65353 65.9449C7.30772 66.9076 7.66406 68.0192 7.99913 69.1627C8.14273 69.652 8.27569 70.1466 8.43525 70.6359C8.54162 70.9603 8.64799 71.2794 8.77032 71.5986C8.41398 71.7209 8.06295 71.7049 7.71193 71.5826C7.5896 71.5454 7.46727 71.4869 7.35026 71.423ZM31.954 62.2485C31.9433 62.4719 31.9274 62.6953 31.9008 62.9186C31.8901 63.0303 31.8742 63.142 31.8582 63.2537C31.837 63.3654 31.8157 63.4771 31.7944 63.5835C31.7731 63.6952 31.7465 63.8015 31.7146 63.9132C31.6934 63.9983 31.6721 64.0834 31.6402 64.1738C31.4434 64.8174 31.1455 65.445 30.7201 66.0406C30.7147 66.0406 30.7147 66.046 30.7147 66.046C29.9542 65.5247 29.6989 64.9078 29.5978 64.2217C29.5872 64.1472 29.5766 64.0675 29.5712 63.9877C29.5606 63.9079 29.5553 63.8334 29.55 63.7537C29.5234 63.4292 29.5181 63.0942 29.4968 62.7485C29.4915 62.6687 29.4862 62.5942 29.4808 62.5144C29.4755 62.5038 29.4755 62.4878 29.4755 62.4719C29.4755 62.4612 29.4755 62.44 29.4755 62.424C29.4702 62.3602 29.4649 62.2751 29.4596 62.1794C29.433 61.8177 29.4117 61.2646 29.4117 60.6476C29.4117 60.4455 29.4117 60.2328 29.4223 60.02C29.433 59.5892 29.4596 59.1531 29.5074 58.7489C29.5234 58.5946 29.5447 58.451 29.5712 58.3074C29.5819 58.2596 29.5925 58.2117 29.5978 58.1692C29.6563 57.85 29.7414 57.5735 29.8531 57.3607C29.917 57.2384 29.9861 57.1374 30.0659 57.0682C30.0818 57.0469 30.1031 57.031 30.1244 57.015C30.1669 56.9831 30.2095 56.9565 30.2573 56.9459C30.2786 56.9353 30.3052 56.9299 30.3318 56.9299C30.4009 56.914 30.4807 56.9193 30.5605 56.9459C30.5977 56.9565 30.6403 56.9725 30.6828 56.9938C30.7041 56.9938 30.7201 57.0097 30.736 57.0204C30.7786 57.0416 30.8211 57.0682 30.869 57.1054C30.9434 57.1533 31.0232 57.2171 31.103 57.3022C31.2732 57.8181 31.4274 58.3447 31.5551 58.8818C31.6614 59.302 31.7519 59.7275 31.821 60.1583C31.8742 60.4827 31.9114 60.8072 31.9327 61.1316C31.938 61.1795 31.938 61.222 31.9433 61.2699C31.9593 61.4879 31.9646 61.706 31.9646 61.9241C31.9646 62.0304 31.9646 62.1421 31.9593 62.2485H31.954ZM58.249 77.1724L57.8554 81.9591C56.9725 83.5547 54.8238 80.5763 54.2707 79.9381C46.7396 71.205 55.5471 74.4599 55.845 66.8438C52.941 66.9288 53.2282 71.7262 49.4733 70.8221C49.2074 66.8331 48.1331 63.6739 49.4733 59.685C50.0584 59.1531 56.7491 62.7378 60.2168 58.0681C62.2964 55.2759 60.2381 51.9571 59.0468 53.3293L59.5042 56.5098C57.4193 58.5574 54.7813 58.1426 52.2177 57.3235C51.6539 57.1427 50.4839 57.6213 51.0689 56.1162C51.8135 54.2228 57.6427 48.3936 59.6531 47.9043C62.7113 47.1597 68.8808 51.989 71.806 46.9682C70.9338 46.33 65.4024 48.266 64.6259 45.3833C84.1132 40.7774 104.34 54.978 115.498 69.6307C108.541 77.683 99.2445 83.193 88.8999 85.8523C72.1889 90.1657 66.5406 85.3098 62.2326 69.2265C57.8767 69.0137 60.7487 76.6512 59.8339 77.9808L58.249 77.1724ZM67.0193 89.8891C61.8869 88.0383 57.6746 86.1927 60.6423 80.3636L67.0193 89.8891ZM60.5998 142.006C51.3774 139.495 55.1217 134.198 51.0795 131.624C50.0265 130.954 48.8138 131.688 48.6649 132.454C48.4203 133.741 51.2604 134.773 49.8669 136.006C44.2718 130.528 37.7725 123.604 37.5066 115.344C44.0484 116.966 52.356 113.11 57.4406 108.983C51.2178 110.291 45.8354 114.674 39.0915 113.738L39.5702 110.61L38.6873 108.983C36.1663 108.451 33.0709 114.45 29.8744 111.408L29.5234 107.387C26.779 106.749 24.4707 107.983 22.1199 108.387C21.12 108.547 21.0988 109.44 19.95 107.77C19.3011 104.813 28.5129 99.186 30.8637 97.9946C33.9644 96.4097 57.4512 88.368 59.451 88.5808C59.8126 88.6127 62.5942 91.0167 64.0834 91.6443C67.0618 92.8888 73.2207 95.3885 75.8162 92.6761C76.6459 91.8145 76.4864 90.1657 76.6778 89.9955C79.5179 87.4745 84.1664 97.4415 84.9641 99.4519C92.4048 118.157 86.3789 149.032 60.5998 142.006ZM107.329 118.53C106.382 119.764 107.244 122.082 104.159 121.731C100.702 121.338 100.521 115.301 96.5533 116.131L96.5427 120.912L90.3359 119.147C90.5486 111.855 89.2509 105.387 86.5597 98.6541C86.0491 97.3883 81.8581 90.2614 82.1879 89.8998C92.0538 96.7501 105.244 102.76 112.839 112.227C113.637 113.216 118.094 120.029 118.072 120.519C117.891 124.71 110.052 114.993 107.329 118.53Z" fill="black"/>
<path d="M60.5995 142.006C51.3771 139.495 55.1214 134.198 51.0793 131.624C50.0262 130.954 48.8136 131.688 48.6646 132.454C48.42 133.741 51.2601 134.773 49.8666 136.007C44.2715 130.528 37.7722 123.604 37.5063 115.344C44.0481 116.961 52.361 113.11 57.4456 108.983C51.2229 110.291 45.8405 114.674 39.0912 113.738L39.5699 110.61L38.687 108.983C36.166 108.451 33.0706 114.45 29.8795 111.408L29.5284 107.387C26.7841 106.749 24.4758 107.983 22.125 108.387C21.1251 108.547 21.1038 109.44 19.955 107.77C19.3061 104.813 28.5179 99.186 30.8687 97.9947C33.9641 96.4097 57.4562 88.3681 59.456 88.5808C59.8177 88.6127 62.594 91.0167 64.0832 91.6443C67.0616 92.8888 73.2205 95.3886 75.8159 92.6761C76.6456 91.8145 76.4861 90.1657 76.6775 89.9955C79.5177 87.4745 84.1661 97.4415 84.9639 99.452C92.3992 118.157 86.3786 149.032 60.5995 142.006Z" fill="#FFC102"/>
<path d="M64.6259 45.384C65.4024 48.2666 70.9337 46.3307 71.8059 46.9689C68.8807 51.9896 62.7112 47.1604 59.653 47.905C57.6426 48.3943 51.8134 54.2234 51.0688 56.1168C50.4838 57.622 51.6539 57.1433 52.2176 57.3242C54.7812 58.1432 57.4192 58.5581 59.5041 56.5104L59.0467 53.3299C60.238 51.9577 62.2963 55.2765 60.2168 58.0687C56.7491 62.7385 50.0583 59.1537 49.4733 59.6856C48.133 63.6745 49.2073 66.8338 49.4733 70.8227C53.2282 71.7268 52.941 66.9295 55.8449 66.8444C55.5471 74.4606 46.7395 71.2056 54.2706 79.9387C54.8237 80.577 56.9724 83.5553 57.8553 81.9598L58.2489 77.1731L59.8338 77.9815C60.7486 76.6518 57.8766 69.0144 62.2325 69.2271C66.5405 85.3105 72.1889 90.1663 88.8998 85.853C99.2444 83.1937 108.541 77.6836 115.498 69.6313C104.34 54.9787 84.1131 40.7781 64.6259 45.384ZM79.571 68.6102C76.699 69.1952 75.2736 71.8758 72.6144 72.4076C72.3697 66.0785 84.0067 62.43 86.9639 68.4293C84.5279 68.5676 81.9963 68.1209 79.571 68.6102ZM91.7665 66.0466C90.9741 60.5685 92.8941 57.1327 98.5211 56.4998L99.3508 58.1007C94.83 59.3665 95.3725 64.8659 91.7665 66.0466Z" fill="#FFC102"/>
<path d="M118.072 120.519C117.892 124.71 110.052 114.998 107.329 118.53C106.382 119.764 107.244 122.083 104.159 121.732C100.702 121.338 100.521 115.307 96.5534 116.137L96.5428 120.913L90.3413 119.147C90.5541 111.86 89.2563 105.393 86.5651 98.6544C86.0545 97.3886 81.8635 90.2617 82.1933 89.9C92.0539 96.7503 105.249 102.76 112.844 112.233C113.642 113.222 118.099 120.03 118.078 120.519H118.072Z" fill="#FFC102"/>
<path d="M56.0098 24.4338C56.4406 24.5295 56.8661 24.604 57.2862 24.6572C56.8661 24.6093 56.4406 24.5348 56.0098 24.4338Z" fill="white"/>
<path d="M62.9189 19.8695C62.6263 19.8908 62.3285 19.9227 62.02 19.9706C62.3285 19.9227 62.6263 19.8855 62.9189 19.8695Z" fill="white"/>
<path d="M62.1528 24.0456C62.6421 23.8435 63.1208 23.6041 63.5835 23.3276C63.1208 23.6148 62.6421 23.8541 62.1528 24.0456Z" fill="white"/>
<path d="M63.5889 23.3274C63.9399 23.1147 64.2803 22.8753 64.6153 22.6201C64.2803 22.8807 63.9399 23.12 63.5889 23.3274Z" fill="white"/>
<path d="M64.9453 22.3531C65.2325 22.1085 65.5197 21.8426 65.7963 21.5607C65.5197 21.8479 65.2325 22.1138 64.9453 22.3531Z" fill="white"/>
<path d="M67.0192 89.8902C61.8921 88.0394 57.6798 86.1992 60.6476 80.37L67.0192 89.8902Z" fill="#E54D0A"/>
<path d="M47.0692 42.1963C47.0107 42.1963 46.9575 42.191 46.899 42.1857C46.665 42.1591 46.4416 42.1432 46.2289 42.1378H46.1704C46.1012 42.1378 46.0321 42.1325 45.9683 42.1325C46.3087 42.1219 46.6756 42.1485 47.0692 42.1963Z" fill="white"/>
<path d="M29.4809 62.5139C29.4862 62.5935 29.4915 62.6678 29.4968 62.7474C29.4915 62.6678 29.4809 62.5882 29.4756 62.5086C29.4756 62.4821 29.4756 62.4555 29.4756 62.4237C29.4756 62.4609 29.4756 62.4874 29.4862 62.5139H29.4809Z" fill="white"/>
<path d="M31.103 57.3026C31.2679 57.8185 31.4221 58.345 31.5497 58.8822C31.4221 58.345 31.2679 57.8185 31.0977 57.3026H31.103Z" fill="white"/>
<path d="M31.8154 60.1598C31.8633 60.4842 31.9005 60.8087 31.9271 61.1331C31.9005 60.8087 31.8686 60.4842 31.8154 60.1598Z" fill="white"/>
<path d="M31.9379 61.2692C31.9379 61.2214 31.9326 61.179 31.9272 61.1312C31.9272 61.179 31.9326 61.2214 31.9379 61.2692Z" fill="white"/>
<path d="M31.9539 62.2474C31.9646 61.923 31.9539 61.5932 31.938 61.2688C31.9593 61.5932 31.9646 61.923 31.9539 62.2474Z" fill="white"/>
<path d="M62.5464 8.84979C62.8549 8.83915 63.1474 8.84979 63.4346 8.86575C63.424 8.86575 63.4133 8.86575 63.4027 8.86575C63.3389 8.86575 63.275 8.85511 63.2112 8.85511C62.9985 8.84447 62.7751 8.83915 62.5464 8.84979Z" fill="white"/>
<path d="M63.9877 8.92936C63.8175 8.89745 63.626 8.8815 63.4346 8.86554C63.626 8.87618 63.8175 8.89745 63.9877 8.92936Z" fill="white"/>
<path d="M6.64307 70.8784C6.81326 71.0379 6.98877 71.1815 7.16429 71.3038C6.98345 71.1815 6.81326 71.0379 6.64307 70.8784Z" fill="white"/>
<path d="M7.3501 71.423C7.47214 71.4867 7.58888 71.5398 7.71093 71.5822C7.58888 71.5451 7.46684 71.4867 7.3501 71.423Z" fill="white"/>
<path d="M8.43515 70.6352C8.27559 70.1459 8.14262 69.6513 7.99902 69.162C8.14262 69.6513 8.28091 70.1459 8.43515 70.6352Z" fill="white"/>
<path d="M8.77563 71.6043C8.41928 71.7267 8.06294 71.7107 7.71191 71.5831C8.06294 71.7054 8.41397 71.7214 8.77031 71.599H8.77563V71.6043Z" fill="white"/>
<path d="M86.9636 68.4289C84.5277 68.5672 81.9961 68.1204 79.5708 68.6097C76.6988 69.1948 75.2734 71.8753 72.6142 72.4072C72.3695 66.0781 84.0065 62.4295 86.9636 68.4289Z" fill="black"/>
<path d="M99.3509 58.1008C94.8301 59.3666 95.3726 64.866 91.7666 66.0468C90.9795 60.5686 92.8942 57.1328 98.5212 56.5052L99.3509 58.1008Z" fill="black"/>
<path d="M86.5703 181.641C87.2481 180.792 88.2435 180.457 89.2471 180.571L89.2461 180.572C90.1889 180.678 90.9182 181.168 91.4346 181.683C91.9468 182.194 92.3476 182.824 92.667 183.45C93.3061 184.702 93.7894 186.282 94.1494 187.864C94.8702 191.03 95.2049 194.696 95.1025 196.905V196.907C94.8932 201.331 94.3773 204.629 93.1846 207.219C92.0591 209.662 90.4014 211.324 88.2148 212.733C88.184 212.824 88.1487 212.923 88.1035 213.023C88.0378 213.167 87.9338 213.365 87.7725 213.566C87.6093 213.769 87.3535 214.019 86.9795 214.197V214.198C84.5032 215.375 81.5672 215.502 79 214.027C76.4368 212.554 74.6024 209.695 73.834 205.619L73.833 205.617C73.3956 203.288 73.1639 199.001 73.4434 195.136C73.5833 193.201 73.8587 191.257 74.3516 189.664C74.5979 188.869 74.9222 188.081 75.3652 187.409C75.805 186.741 76.448 186.056 77.3721 185.7H77.373C78.053 185.438 78.8377 185.309 79.6455 185.516C80.4702 185.727 81.0724 186.226 81.4844 186.767C82.2223 187.737 82.5104 189.058 82.6689 190.112C82.8397 191.246 82.9161 192.531 82.9854 193.677C83.0578 194.876 83.1234 195.923 83.2578 196.766L83.3271 197.17C83.6887 199.143 84.2657 200.372 84.7871 201.03C85.0578 201.371 85.2728 201.508 85.3848 201.558C85.4781 201.6 85.5164 201.592 85.54 201.586C85.6188 201.568 86.1195 201.37 86.6465 200.218C87.1513 199.115 87.5471 197.386 87.5537 194.982V194.98C87.555 194.654 87.3967 193.814 87.0771 192.41C86.788 191.139 86.4089 189.565 86.1338 188.09C85.8672 186.661 85.6459 185.073 85.7764 183.801C85.8399 183.182 86.0123 182.34 86.5703 181.641Z" fill="#EF5214" stroke="black" stroke-width="4"/>
<path d="M175.129 179.924L175.512 179.966L175.516 179.967C177.689 180.289 179.358 181.895 180.558 183.645C181.798 185.454 182.794 187.779 183.525 190.234C184.973 195.101 185.526 201.003 184.493 205.318L184.494 205.319C184.111 206.92 183.164 208.409 181.59 208.935C179.945 209.485 178.421 208.736 177.522 207.478L177.35 207.22C176.857 206.419 176.571 205.459 176.383 204.543C176.19 203.602 176.072 202.559 175.99 201.503C175.907 200.443 175.857 199.32 175.811 198.222C175.764 197.112 175.722 196.029 175.655 194.993C175.515 192.838 175.281 191.235 174.875 190.312C174.775 190.084 174.693 189.966 174.647 189.91C174.609 189.916 174.553 189.928 174.475 189.953C174.419 190.008 174.203 190.272 174.042 191.208C173.837 192.406 173.846 194.056 173.967 195.985C174.09 197.939 174.3 199.842 174.452 201.785C174.592 203.588 174.685 205.455 174.45 206.842C174.181 208.428 173.241 209.813 171.933 210.486C171.265 210.829 170.416 211.022 169.525 210.802C168.6 210.575 167.882 209.965 167.427 209.177L167.426 209.175C167.117 208.638 166.907 207.878 166.751 207.228C166.576 206.496 166.402 205.596 166.234 204.601C165.897 202.607 165.566 200.133 165.285 197.646C165.003 195.157 164.768 192.63 164.625 190.527C164.486 188.499 164.416 186.673 164.522 185.71L164.523 185.707C164.708 184.056 165.566 182.598 166.64 181.68C167.572 180.884 169.513 179.918 171.243 181.248C172.11 180.558 173.436 179.802 175.129 179.924Z" fill="#EF5214" stroke="black" stroke-width="4"/>
<path d="M101.199 180.833C103.735 179.798 106.379 180.858 108.288 182.456C110.134 184.002 111.675 186.322 112.47 189.002L112.62 189.543V189.545C113.065 191.306 113.593 194.981 113.822 198.509C113.937 200.285 113.981 202.089 113.891 203.644C113.846 204.422 113.765 205.174 113.631 205.848C113.504 206.491 113.303 207.193 112.952 207.796C112.442 208.673 111.619 209.116 111.017 209.325C110.413 209.535 109.696 209.631 109.04 209.516L109.031 209.514C107.682 209.271 106.834 208.337 106.333 207.456C105.84 206.589 105.539 205.539 105.331 204.514C104.913 202.456 104.756 199.85 104.603 197.49C104.443 195.023 104.286 192.827 103.922 191.265C103.793 190.709 103.659 190.34 103.548 190.111C103.443 190.244 103.278 190.549 103.147 191.159C102.871 192.445 102.89 194.316 103.036 196.572C103.173 198.691 103.429 201.21 103.489 203.301C103.519 204.373 103.504 205.435 103.387 206.398C103.274 207.335 103.046 208.342 102.544 209.196L102.543 209.198C102.117 209.923 101.354 210.982 100.08 211.213C98.5387 211.492 97.5568 210.42 97.147 209.832C96.6871 209.172 96.3544 208.331 96.0991 207.526C95.8333 206.688 95.6051 205.733 95.4077 204.75C94.6239 200.845 94.2219 195.918 94.1021 194.444L94.103 194.443C93.957 192.649 93.5538 189.719 93.6499 187.335C93.6985 186.13 93.8751 184.802 94.4146 183.68C95.0024 182.456 96.0671 181.416 97.7144 181.182L97.7271 181.181C98.6957 181.05 99.4453 181.353 99.9771 181.707C100.203 181.466 100.609 181.074 101.185 180.839V180.838C101.187 180.837 101.188 180.837 101.19 180.837C101.193 180.836 101.196 180.833 101.199 180.832V180.833Z" fill="#EF5214" stroke="black" stroke-width="4"/>
<path d="M159.606 179.534C160.791 179.293 162.44 179.22 163.836 180.331C165.194 181.412 165.78 183.197 165.94 185.32L165.963 185.667C166.053 187.389 165.818 188.949 164.842 190.053C163.733 191.307 162.208 191.375 161.319 191.346C160.853 191.33 160.359 191.276 160.007 191.242C159.61 191.205 159.331 191.187 159.104 191.195C159.017 191.199 158.955 191.206 158.913 191.213C158.536 191.921 158.328 193.014 158.31 194.562C158.291 196.137 158.465 197.891 158.639 199.766C158.806 201.573 158.977 203.519 158.878 205.24C158.782 206.91 158.414 208.812 157.112 210.182C156.676 210.642 156.038 211.184 155.184 211.358C154.146 211.568 153.279 211.154 152.714 210.6C152.231 210.126 151.935 209.53 151.743 209.068C151.537 208.574 151.367 208.021 151.218 207.482C150.21 203.835 150.099 199.535 150.211 195.4C150.329 191.067 150.668 187.21 150.685 183.588L150.687 183.314L150.761 183.05C150.933 182.444 151.147 181.887 151.427 181.413C151.704 180.945 152.117 180.437 152.742 180.118C154.209 179.369 155.473 180.207 155.945 180.588C156.168 180.767 156.379 180.978 156.566 181.178C156.628 181.132 156.693 181.085 156.762 181.034C157.111 180.779 157.537 180.474 157.977 180.213C158.395 179.964 158.962 179.67 159.594 179.537L159.606 179.534Z" fill="#EF5214" stroke="black" stroke-width="4"/>
<path d="M122.397 180.573C123.885 179.49 125.672 178.931 127.615 179.287L128.006 179.371L128.009 179.372C128.958 179.606 129.581 180.196 129.864 180.463C129.975 180.567 130.036 180.624 130.08 180.665C130.139 180.668 130.23 180.666 130.375 180.654C130.473 180.645 130.772 180.615 130.996 180.606C131.254 180.595 131.646 180.597 132.078 180.717C133.149 181.014 133.787 181.815 134.133 182.707C134.438 183.496 134.59 184.522 134.673 185.771L134.753 187.106C135.136 194.236 135.253 207.844 134.496 213.93C134.309 215.441 133.844 217.728 133.315 219.899C132.792 222.05 132.162 224.266 131.613 225.586V225.587C129.956 229.574 126.424 232.277 122.736 231.978C120.851 231.825 119.122 230.875 117.871 229.184C116.647 227.529 115.938 225.254 115.795 222.449V222.443C115.775 222.022 115.85 221.277 115.924 220.617C116.008 219.874 116.124 218.977 116.247 218.109C116.37 217.241 116.501 216.386 116.615 215.726C116.672 215.399 116.728 215.1 116.779 214.865C116.804 214.751 116.834 214.621 116.869 214.499C116.886 214.441 116.914 214.35 116.954 214.249C116.964 214.223 117.08 213.907 117.35 213.609H117.351C117.943 212.953 118.734 212.803 119.1 212.756C119.565 212.696 120.042 212.722 120.471 212.794C120.902 212.867 121.374 213.001 121.816 213.22C122.23 213.425 122.8 213.795 123.182 214.437L123.279 214.61C123.744 215.486 123.873 216.479 123.924 217.225C123.963 217.802 123.963 218.44 123.962 218.983C124.289 218.466 124.611 217.796 124.902 216.992C125.386 215.66 125.731 214.119 125.908 212.626C124.607 212.814 123.21 212.79 121.945 212.347V212.346C121.529 212.2 121.199 211.941 121.072 211.842C120.882 211.692 120.685 211.517 120.5 211.342C120.126 210.989 119.705 210.552 119.312 210.117C118.917 209.682 118.525 209.223 118.208 208.819C118.05 208.618 117.898 208.414 117.769 208.222C117.67 208.076 117.485 207.793 117.366 207.471C117.288 207.259 117.216 206.947 117.175 206.765C117.117 206.512 117.047 206.187 116.971 205.82C116.817 205.082 116.631 204.141 116.45 203.198C116.27 202.256 116.094 201.302 115.962 200.537C115.896 200.156 115.839 199.812 115.798 199.535C115.766 199.321 115.719 198.991 115.717 198.74L115.718 198.74C115.678 194.006 116.755 188.977 118.672 185.236C119.629 183.367 120.862 181.69 122.397 180.573ZM126.165 187.556C125.878 187.851 125.547 188.336 125.21 189.123C124.536 190.698 124.134 192.886 124.099 195.092C124.063 197.324 124.407 199.286 124.987 200.479C125.273 201.066 125.536 201.303 125.672 201.382C125.71 201.404 125.764 201.434 125.869 201.435C125.874 201.425 125.881 201.415 125.886 201.404C126.046 201.054 126.219 200.482 126.37 199.681C126.668 198.098 126.813 195.985 126.798 193.844C126.782 191.702 126.608 189.651 126.313 188.19C126.265 187.95 126.213 187.74 126.165 187.556Z" fill="#EF5214" stroke="black" stroke-width="4"/>
<path d="M188.823 180.404C190.296 179.188 192.119 178.787 193.879 179.522C195.49 180.195 196.689 181.673 197.508 183.409C198.345 185.183 198.897 187.448 199.09 190.086V190.087C199.396 194.252 198.433 197.083 195.966 198.445C194.865 199.053 193.677 199.228 192.669 199.272C192.51 199.279 192.349 199.282 192.188 199.283C192.334 200.242 192.551 200.994 192.813 201.496C192.965 201.787 193.083 201.896 193.125 201.929C193.152 201.928 193.199 201.919 193.274 201.896C193.298 201.878 193.341 201.849 193.4 201.799C193.56 201.663 193.756 201.469 194.008 201.206C194.451 200.743 195.134 199.98 195.779 199.431C196.115 199.145 196.543 198.824 197.039 198.597C197.54 198.368 198.256 198.168 199.066 198.356C200.747 198.746 201.414 200.374 201.731 201.579L201.796 201.858C202.09 203.258 201.839 204.703 201.415 205.958C200.952 207.326 200.219 208.666 199.408 209.832C198.596 210.999 197.657 212.064 196.73 212.863C196.268 213.261 195.772 213.624 195.263 213.899C194.786 214.157 194.136 214.423 193.408 214.43L193.409 214.431C193.407 214.431 193.405 214.43 193.403 214.43V214.431L193.402 214.43C190.684 214.456 188.69 212.784 187.36 210.721C186.035 208.667 185.165 205.952 184.652 203.111C183.627 197.439 183.9 190.557 185.541 185.749L185.542 185.748C186.346 183.397 187.436 181.548 188.823 180.404Z" fill="#EF5214" stroke="black" stroke-width="4"/>
<path d="M140.767 178.429C142.322 177.822 143.887 177.864 145.282 178.572C146.609 179.245 147.581 180.416 148.27 181.706C149.64 184.269 150.209 187.877 150 191.55C149.892 193.445 149.432 194.992 148.451 196.096C147.43 197.245 146.136 197.594 145.098 197.698C144.589 197.749 144.096 197.747 143.689 197.738C143.266 197.729 142.981 197.715 142.69 197.717C142.788 198.147 142.964 198.676 143.203 199.235C143.48 199.883 143.804 200.479 144.095 200.908C144.097 200.906 144.101 200.905 144.103 200.903C144.549 200.549 145.019 200.037 145.637 199.375C146.157 198.818 146.898 198.02 147.689 197.539C148.107 197.284 148.727 196.996 149.482 197.004C150.321 197.011 151.036 197.379 151.564 197.926C152.806 199.213 152.955 200.934 152.795 202.315C152.631 203.734 152.105 205.208 151.483 206.506C150.854 207.82 150.073 209.068 149.303 210.053C148.919 210.545 148.514 211.001 148.109 211.376C147.743 211.714 147.223 212.131 146.602 212.348L146.601 212.347C144.45 213.101 142.408 212.878 140.674 211.774C139.033 210.73 137.859 209.022 137.026 207.141C135.358 203.377 134.719 198.162 134.953 193.143C135.065 190.731 135.474 187.622 136.266 184.917C136.662 183.566 137.176 182.236 137.846 181.126C138.499 180.045 139.433 178.949 140.767 178.428V178.429Z" fill="#EF5214" stroke="black" stroke-width="4"/>
<path d="M46.1636 191.016C47.5466 190.756 48.7009 191.351 49.4995 192.073C50.2771 192.776 50.8939 193.738 51.3872 194.732C52.3843 196.742 53.1348 199.416 53.5874 202.088C54.0415 204.768 54.2231 207.608 53.9927 209.983C53.8779 211.166 53.6536 212.322 53.2544 213.312C52.8662 214.275 52.212 215.324 51.0874 215.908L51.0864 215.907C50.5576 216.181 49.9487 216.364 49.2856 216.344C48.6095 216.325 48.0072 216.099 47.5063 215.758C46.5772 215.126 46.019 214.117 45.6587 213.234C44.9159 211.413 44.5185 208.851 44.3062 206.297C43.8776 201.142 44.1376 195.064 44.5649 192.634L44.8042 191.272L46.1636 191.016Z" fill="#EF5214" stroke="black" stroke-width="4"/>
<path d="M45.7197 175.839C47.7144 175.506 49.173 176.611 49.998 177.882C50.7842 179.093 51.1674 180.641 51.2793 182.085C51.3927 183.549 51.2461 185.137 50.7646 186.511C50.3021 187.831 49.378 189.344 47.6709 189.923L47.6719 189.924C46.7323 190.244 45.7553 190.288 44.8271 189.968C43.9151 189.654 43.23 189.051 42.7402 188.389C41.7997 187.118 41.4055 185.41 41.3223 183.873C41.2371 182.301 41.4586 180.588 42.0498 179.149C42.6158 177.771 43.7413 176.171 45.7178 175.839H45.7197Z" fill="#EF5214" stroke="black" stroke-width="4"/>
<path d="M34.3892 172.141C35.4422 172.035 36.5321 172.182 37.5552 172.711C38.447 173.171 39.1873 173.869 39.7827 174.748L40.0288 175.134V175.135C40.8804 176.564 41.3964 178.449 41.7065 180.393C42.0227 182.375 42.1503 184.588 42.1284 186.784C42.0852 191.112 41.4559 195.691 40.3237 198.506L40.3228 198.508C39.2986 201.047 37.9558 202.574 36.3081 203.547C35.3943 204.086 34.3644 204.441 33.4458 204.722C33.5126 205.469 33.6035 206.292 33.7056 207.182C33.8788 208.693 34.0755 210.372 34.1782 212.016C34.2806 213.655 34.2965 215.348 34.0796 216.902C33.8653 218.436 33.3996 220.023 32.3892 221.284C31.7183 222.121 30.7703 222.982 29.5015 223.116C28.0795 223.266 27.0653 222.446 26.481 221.712C25.9028 220.984 25.4865 220.048 25.1694 219.13C24.842 218.183 24.5701 217.104 24.3403 215.989C23.4323 211.581 23.0499 205.865 22.8413 203.696V203.695C22.7607 202.874 22.6925 200.94 22.6206 199.271C22.5833 198.404 22.5441 197.583 22.5015 196.942C22.4905 196.777 22.4781 196.628 22.4673 196.498C22.1784 196.261 21.7844 195.872 21.5269 195.3L21.522 195.289C20.9134 193.914 20.4128 192.224 20.2114 190.493C20.0122 188.779 20.0883 186.869 20.7944 185.158C22.1577 181.848 25.3266 177.527 28.7134 174.825C30.3911 173.486 32.3662 172.346 34.3892 172.141ZM33.7319 185.662C33.6326 185.691 33.3678 185.806 32.9517 186.201L32.9497 186.203C32.3694 186.753 32.0262 187.83 32.0894 189.738C32.1325 191.042 32.3427 192.389 32.5659 193.768C32.6315 193.745 32.6997 193.723 32.7681 193.697C33.2528 193.512 33.7179 193.289 34.0679 193.08C34.2264 192.985 34.3373 192.905 34.4067 192.85C34.7335 192.234 34.9647 191.299 34.9995 190.177C35.0358 189.008 34.8548 187.831 34.5269 186.924C34.1917 185.999 33.8398 185.709 33.7524 185.656C33.7467 185.657 33.7399 185.659 33.7319 185.662Z" fill="#EF5214" stroke="black" stroke-width="4"/>
<path d="M65.1768 169.804C67.0637 169.351 68.7993 169.725 70.2178 170.787C71.5567 171.789 72.4733 173.294 73.1016 174.898C74.3579 178.106 74.7327 182.408 74.4463 186.513C74.1597 190.622 73.1896 194.852 71.4941 197.903C70.646 199.429 69.5312 200.812 68.0791 201.66C67.3506 202.085 66.5676 202.353 65.749 202.452C65.7999 203.027 65.8567 203.644 65.9189 204.299C66.0712 205.899 66.2374 207.683 66.3105 209.427C66.3833 211.162 66.3688 212.94 66.1338 214.527C65.9058 216.066 65.4322 217.71 64.3613 218.915L64.3584 218.918C63.8546 219.482 63.2445 220.033 62.4941 220.331C61.6194 220.678 60.7386 220.611 59.9707 220.229C59.3237 219.908 58.8386 219.403 58.5107 219.028C58.1762 218.646 57.8055 218.156 57.4941 217.761L57.1826 217.367L57.0947 216.873C56.5128 213.601 55.9128 210.365 55.4766 206.939L55.2998 205.459C55.1009 203.659 55.0216 201.336 54.9209 199.224C54.8162 197.027 54.6895 195.076 54.4258 193.77L54.4248 193.768C54.3498 193.395 54.2003 193.034 53.9443 192.536C53.7177 192.095 53.3154 191.385 53.0039 190.655C52.2959 188.996 51.8946 186.954 52.4414 183.862C52.6983 182.404 53.5194 180.864 54.4502 179.481C55.4122 178.052 56.6261 176.596 57.8779 175.279C59.1307 173.961 60.458 172.744 61.665 171.801C62.2681 171.33 62.8631 170.911 63.4209 170.578C63.9515 170.261 64.5606 169.954 65.1729 169.805L65.1768 169.804ZM65.8037 183.172C65.4426 183.239 64.1882 184.064 64.1592 186.525C64.1522 187.243 64.2906 188.163 64.4805 189.311C64.5628 189.809 64.654 190.355 64.7334 190.912C64.8892 190.909 65.0381 190.903 65.1826 190.89C65.7483 190.842 66.0215 190.725 66.1748 190.613C66.4108 190.44 67.1443 189.653 66.9561 186.017C66.8732 184.446 66.4807 183.681 66.2197 183.377C66.0184 183.142 65.8981 183.154 65.8037 183.172Z" fill="#EF5214" stroke="black" stroke-width="4"/>
</svg>
