<svg width="28" height="28" viewBox="0 0 28 28" fill="none" xmlns="http://www.w3.org/2000/svg">
<path d="M14 0C21.7322 0 28 6.2678 28 14C28 21.7322 21.7322 28 14 28C6.2678 28 0 21.7322 0 14C0 6.2678 6.2678 0 14 0ZM14.224 19.6C12.8696 19.5984 11.5297 19.8783 10.2892 20.422C9.04873 20.9657 7.93484 21.7613 7.0182 22.7584C9.00019 24.3424 11.4628 25.2036 14 25.2C16.6493 25.2038 19.2134 24.2649 21.2338 22.5512C20.322 21.6157 19.2318 20.8725 18.0278 20.3656C16.8238 19.8587 15.5304 19.5984 14.224 19.6ZM14 2.8C11.9169 2.80005 9.87514 3.38103 8.10409 4.47766C6.33304 5.57428 4.90291 7.14309 3.97441 9.00779C3.04592 10.8725 2.65585 12.9592 2.84805 15.0334C3.04024 17.1076 3.80709 19.0871 5.0624 20.7494C6.23917 19.5008 7.65907 18.5062 9.23467 17.827C10.8103 17.1478 12.5082 16.7983 14.224 16.8C15.8783 16.7977 17.5168 17.1223 19.0453 17.7551C20.5738 18.388 21.9623 19.3166 23.1308 20.4876C24.3215 18.812 25.0281 16.8409 25.1732 14.7904C25.3183 12.7399 24.8962 10.689 23.9533 8.86244C23.0103 7.03583 21.5829 5.50397 19.8273 4.43465C18.0717 3.36533 16.0556 2.79979 14 2.8ZM14 4.2C15.4852 4.2 16.9096 4.79 17.9598 5.8402C19.01 6.89041 19.6 8.31479 19.6 9.8C19.6 11.2852 19.01 12.7096 17.9598 13.7598C16.9096 14.81 15.4852 15.4 14 15.4C12.5148 15.4 11.0904 14.81 10.0402 13.7598C8.99 12.7096 8.4 11.2852 8.4 9.8C8.4 8.31479 8.99 6.89041 10.0402 5.8402C11.0904 4.79 12.5148 4.2 14 4.2ZM14 7C13.2574 7 12.5452 7.295 12.0201 7.8201C11.495 8.3452 11.2 9.05739 11.2 9.8C11.2 10.5426 11.495 11.2548 12.0201 11.7799C12.5452 12.305 13.2574 12.6 14 12.6C14.7426 12.6 15.4548 12.305 15.9799 11.7799C16.505 11.2548 16.8 10.5426 16.8 9.8C16.8 9.05739 16.505 8.3452 15.9799 7.8201C15.4548 7.295 14.7426 7 14 7Z" fill="#180A1F"/>
</svg>
