<svg width="28" height="35" viewBox="0 0 28 35" fill="none" xmlns="http://www.w3.org/2000/svg">
<path d="M1.68913 0H25.3369C25.7849 0 26.2145 0.17369 26.5313 0.48286C26.8481 0.792029 27.026 1.21135 27.026 1.64859V33.2075C27.0262 33.3549 26.9859 33.4996 26.9093 33.6266C26.8327 33.7537 26.7226 33.8583 26.5905 33.9297C26.4584 34.0011 26.309 34.0366 26.1581 34.0325C26.0071 34.0284 25.86 33.9849 25.7322 33.9065L13.513 26.4268L1.29387 33.9048C1.16612 33.9832 1.0192 34.0267 0.868384 34.0308C0.717569 34.035 0.568368 33.9996 0.436293 33.9284C0.304219 33.8573 0.194092 33.7528 0.117365 33.626C0.0406384 33.4993 0.000112278 33.3547 0 33.2075V1.64859C0 1.21135 0.177961 0.792029 0.494734 0.48286C0.811507 0.17369 1.24114 0 1.68913 0ZM23.6478 3.29717H3.37825V28.7381L13.513 22.5378L23.6478 28.7381V3.29717ZM6.75651 11.5401H11.8239V7.00649H15.6244V11.5401H20.2695V14.8373H15.6244V19.783H11.8239V14.8373H6.75651V11.5401Z" fill="black"/>
</svg>
