<svg width="34" height="35" viewBox="0 0 34 35" fill="none" xmlns="http://www.w3.org/2000/svg">
<path d="M19.3329 25.5617L12.0328 21.6653C11.0797 22.6625 9.8422 23.356 8.48108 23.6558C7.11996 23.9557 5.69816 23.8478 4.40046 23.3464C3.10277 22.845 1.98918 21.9732 1.20441 20.8442C0.419651 19.7153 0 18.3814 0 17.016C0 15.6506 0.419651 14.3167 1.20441 13.1878C1.98918 12.0588 3.10277 11.187 4.40046 10.6856C5.69816 10.1842 7.11996 10.0764 8.48108 10.3762C9.8422 10.676 11.0797 11.3695 12.0328 12.3667L19.3347 8.47032C18.9207 6.86406 19.1196 5.16519 19.894 3.69217C20.6684 2.21915 21.9651 1.07311 23.5411 0.468884C25.1172 -0.135341 26.8643 -0.156269 28.4549 0.410025C30.0456 0.976319 31.3706 2.09095 32.1816 3.54498C32.9926 4.99902 33.2339 6.69261 32.8603 8.30831C32.4866 9.924 31.5237 11.3509 30.152 12.3214C28.7803 13.292 27.094 13.7396 25.4092 13.5803C23.7244 13.4211 22.1568 12.6659 21.0002 11.4564L13.6983 15.3528C13.9791 16.444 13.9791 17.5863 13.6983 18.6775L21.0002 22.5739C22.1573 21.365 23.7253 20.6106 25.4101 20.4522C27.095 20.2937 28.781 20.7421 30.1522 21.7133C31.5235 22.6844 32.4857 24.1117 32.8586 25.7275C33.2315 27.3433 32.9894 29.0368 32.1778 30.4904C31.3661 31.9441 30.0407 33.0581 28.4498 33.6238C26.8589 34.1894 25.1119 34.1677 23.5361 33.5629C21.9604 32.9581 20.6641 31.8115 19.8903 30.3383C19.1166 28.865 18.9184 27.1661 19.3329 25.56M6.95451 20.4181C7.87669 20.4181 8.7611 20.0596 9.41318 19.4214C10.0653 18.7832 10.4316 17.9177 10.4316 17.0152C10.4316 16.1126 10.0653 15.2471 9.41318 14.6089C8.7611 13.9707 7.87669 13.6122 6.95451 13.6122C6.03234 13.6122 5.14793 13.9707 4.49585 14.6089C3.84377 15.2471 3.47744 16.1126 3.47744 17.0152C3.47744 17.9177 3.84377 18.7832 4.49585 19.4214C5.14793 20.0596 6.03234 20.4181 6.95451 20.4181ZM26.0784 10.2092C27.0006 10.2092 27.885 9.85071 28.5371 9.21253C29.1892 8.57435 29.5555 7.70879 29.5555 6.80627C29.5555 5.90375 29.1892 5.0382 28.5371 4.40002C27.885 3.76184 27.0006 3.40331 26.0784 3.40331C25.1563 3.40331 24.2719 3.76184 23.6198 4.40002C22.9677 5.0382 22.6014 5.90375 22.6014 6.80627C22.6014 7.70879 22.9677 8.57435 23.6198 9.21253C24.2719 9.85071 25.1563 10.2092 26.0784 10.2092ZM26.0784 30.627C27.0006 30.627 27.885 30.2685 28.5371 29.6303C29.1892 28.9921 29.5555 28.1266 29.5555 27.224C29.5555 26.3215 29.1892 25.456 28.5371 24.8178C27.885 24.1796 27.0006 23.8211 26.0784 23.8211C25.1563 23.8211 24.2719 24.1796 23.6198 24.8178C22.9677 25.456 22.6014 26.3215 22.6014 27.224C22.6014 28.1266 22.9677 28.9921 23.6198 29.6303C24.2719 30.2685 25.1563 30.627 26.0784 30.627Z" fill="black"/>
</svg>
