<svg width="119" height="119" viewBox="0 0 119 119" fill="none" xmlns="http://www.w3.org/2000/svg">
<path fill-rule="evenodd" clip-rule="evenodd" d="M59.5 0C92.3618 0 119 26.6382 119 59.5C119.02 73.2319 114.272 86.5447 105.565 97.1635L105.684 97.2944L104.898 97.9608C99.3182 104.56 92.3647 109.862 84.5235 113.496C76.6822 117.13 68.1423 119.008 59.5 119C41.9475 119 26.18 111.402 15.2915 99.3233L14.1015 97.9548L13.3161 97.3003L13.4351 97.1575C4.72974 86.5403 -0.0190538 73.2298 5.74597e-05 59.5C5.74597e-05 26.6382 26.6382 0 59.5 0ZM59.5 89.25C48.433 89.25 38.4311 92.7724 30.9817 97.6157C39.2081 103.785 49.217 107.114 59.5 107.1C69.783 107.114 79.7919 103.785 88.0183 97.6157C79.5057 92.162 69.6098 89.2591 59.5 89.25ZM59.5 11.9C50.5424 11.8997 41.7666 14.4271 34.1811 19.1914C26.5957 23.9558 20.5085 30.7639 16.6193 38.8331C12.7302 46.9023 11.1968 55.9052 12.1955 64.8069C13.1942 73.7087 16.6844 82.148 22.2649 89.1548C31.9099 82.2349 45.0713 77.35 59.5 77.35C73.9287 77.35 87.0901 82.2349 96.7351 89.1548C102.316 82.148 105.806 73.7087 106.805 64.8069C107.803 55.9052 106.27 46.9023 102.381 38.8331C98.4915 30.7639 92.4043 23.9558 84.8189 19.1914C77.2334 14.4271 68.4576 11.8997 59.5 11.9ZM59.5 23.8C65.8121 23.8 71.8658 26.3075 76.3291 30.7709C80.7925 35.2342 83.3 41.2878 83.3 47.6C83.3 53.9121 80.7925 59.9658 76.3291 64.4291C71.8658 68.8925 65.8121 71.4 59.5 71.4C53.1878 71.4 47.1342 68.8925 42.6709 64.4291C38.2075 59.9658 35.7 53.9121 35.7 47.6C35.7 41.2878 38.2075 35.2342 42.6709 30.7709C47.1342 26.3075 53.1878 23.8 59.5 23.8ZM59.5 35.7C56.3439 35.7 53.3171 36.9537 51.0854 39.1854C48.8538 41.4171 47.6 44.4439 47.6 47.6C47.6 50.7561 48.8538 53.7829 51.0854 56.0146C53.3171 58.2462 56.3439 59.5 59.5 59.5C62.6561 59.5 65.6829 58.2462 67.9146 56.0146C70.1462 53.7829 71.4 50.7561 71.4 47.6C71.4 44.4439 70.1462 41.4171 67.9146 39.1854C65.6829 36.9537 62.6561 35.7 59.5 35.7Z" fill="white"/>
</svg>
